<?xml version="1.0" encoding="UTF-8" standalone="no"?>
<!DOCTYPE svg PUBLIC "-//W3C//DTD SVG 1.1//EN" "http://www.w3.org/Graphics/SVG/1.1/DTD/svg11.dtd">
<svg width="100%" height="100%" viewBox="0 0 501 393" version="1.1" xmlns="http://www.w3.org/2000/svg" xmlns:xlink="http://www.w3.org/1999/xlink" xml:space="preserve" xmlns:serif="http://www.serif.com/" style="fill-rule:evenodd;clip-rule:evenodd;stroke-linejoin:round;stroke-miterlimit:2;">
    <g transform="matrix(0.0860183,0,0,-0.0860183,26.1069,368.045)">
        <path d="M882,3922C873,3916 884,3897 925,3851C955,3817 989,3771 1000,3749C1037,3678 1041,3575 1034,2948L1027,2350L955,2350C782,2350 532,2402 403,2465C293,2519 234,2602 215,2733C211,2759 204,2782 200,2785C184,2795 108,2694 65,2605C14,2500 -5,2408 4,2310C17,2162 74,2045 197,1910C271,1828 271,1828 263,1786C250,1720 255,1638 274,1600C292,1565 348,1500 361,1500C364,1500 370,1518 374,1540C381,1587 425,1641 475,1664C522,1687 642,1707 855,1728L1030,1746L1031,1691C1037,1360 1035,349 1028,296C1017,204 993,154 926,81C895,48 870,16 870,10C870,-3 3565,-3 3789,10C4191,35 4482,148 4713,369C4841,492 4931,657 4980,861C5011,987 5014,1228 4986,1335C4914,1610 4726,1812 4383,1984C4321,2015 4270,2042 4270,2044C4270,2046 4303,2067 4343,2090C4497,2181 4656,2322 4736,2440C4841,2593 4887,2789 4869,3006C4857,3142 4829,3247 4770,3367C4644,3626 4432,3790 4118,3871C3911,3924 3967,3923 2375,3927C1561,3929 889,3926 882,3922ZM3590,3259C3870,3221 3969,3145 4006,2941C4058,2650 3961,2478 3700,2398L3625,2375L2768,2372L1910,2369L1910,3269L1933,3273C1976,3282 3515,3269 3590,3259ZM3548,1699C3844,1667 3991,1597 4068,1451C4116,1363 4133,1274 4127,1150C4121,1023 4103,960 4047,879C3979,779 3889,728 3705,688C3632,672 3554,667 3295,660C2920,650 1939,647 1916,656C1902,661 1900,718 1900,1186L1900,1710L2675,1710C3156,1710 3488,1706 3548,1699Z" style="fill:white;fill-rule:nonzero;"/>
    </g>
</svg>
