<?xml version="1.0" standalone="no"?>
<!DOCTYPE svg PUBLIC "-//W3C//DTD SVG 20010904//EN"
 "http://www.w3.org/TR/2001/REC-SVG-20010904/DTD/svg10.dtd">
<svg version="1.0" xmlns="http://www.w3.org/2000/svg"
 width="501.000000pt" height="501.000000pt" viewBox="0 0 501.000000 501.000000"
 preserveAspectRatio="xMidYMid meet">
<metadata>
Created by potrace 1.11, written by Peter Selinger 2001-2013
</metadata>
<g transform="translate(0.000000,501.000000) scale(0.100000,-0.100000)"
fill="#000000" stroke="none">
<path d="M881 4461 c-12 -7 -4 -20 37 -63 66 -67 103 -141 111 -221 8 -78 6
-1270 -2 -1283 -3 -6 -18 -9 -34 -8 -221 15 -286 24 -422 60 -229 59 -322 143
-353 316 -6 34 -13 65 -15 67 -5 7 -54 -42 -85 -87 -107 -154 -140 -322 -98
-488 31 -121 76 -197 178 -304 72 -74 74 -79 61 -141 -13 -60 -6 -125 17 -172
17 -33 73 -97 85 -97 3 0 9 18 13 40 12 75 82 131 188 150 52 10 75 13 173 25
28 3 64 7 80 10 17 2 68 7 115 11 47 3 88 8 93 11 10 6 9 62 11 -717 2 -849 5
-823 -109 -951 -30 -34 -55 -66 -55 -71 0 -10 2949 -5 3020 5 25 4 61 10 80
13 19 3 46 7 60 9 14 2 48 9 75 15 28 6 57 13 65 15 65 14 274 103 345 148
270 168 428 406 481 722 3 17 7 90 8 164 3 102 -1 155 -15 219 -18 80 -74 223
-91 230 -5 2 -8 8 -8 14 0 15 -89 128 -140 177 -98 95 -216 173 -392 261 -49
23 -88 44 -88 46 0 1 35 23 78 47 277 161 455 382 507 627 26 125 24 320 -4
418 -5 17 -8 32 -6 32 7 0 -43 136 -74 202 -78 165 -240 329 -401 408 -113 54
-291 108 -420 126 -30 4 -64 9 -75 12 -41 9 -2980 12 -2994 3z m2654 -655 c44
-5 82 -9 85 -11 3 -2 25 -6 49 -10 61 -9 160 -41 197 -64 44 -27 99 -98 117
-151 48 -143 44 -327 -8 -430 -55 -107 -165 -177 -334 -212 -91 -19 -137 -20
-901 -20 -443 0 -812 0 -820 1 -13 1 -15 57 -13 447 1 298 5 449 12 453 14 9
1517 6 1616 -3z m-135 -1560 c172 -6 191 -8 305 -32 39 -8 81 -17 95 -20 50
-10 150 -63 193 -103 119 -110 167 -329 117 -526 -35 -136 -99 -219 -211 -273
-66 -33 -187 -66 -274 -77 -27 -3 -66 -9 -85 -12 -40 -6 -1583 -12 -1615 -6
-20 4 -20 9 -20 526 l0 522 145 5 c183 6 1130 3 1350 -4z"/>
</g>
</svg>
