<?xml version="1.0" standalone="no"?>
<!DOCTYPE svg PUBLIC "-//W3C//DTD SVG 20010904//EN"
 "http://www.w3.org/TR/2001/REC-SVG-20010904/DTD/svg10.dtd">
<svg version="1.0" xmlns="http://www.w3.org/2000/svg"
 width="1002.000000pt" height="1002.000000pt" viewBox="0 0 1002.000000 1002.000000"
 preserveAspectRatio="xMidYMid meet">
<metadata>
Created by potrace 1.11, written by Peter Selinger 2001-2013
</metadata>
<g transform="translate(0.000000,1002.000000) scale(0.100000,-0.100000)"
fill="#000000" stroke="none">
<path d="M2178 8332 c-123 -2 -138 -4 -138 -20 0 -10 38 -65 85 -122 87 -107
140 -198 150 -259 3 -19 8 -38 10 -42 12 -18 17 -249 19 -769 0 -311 -2 -574
-5 -586 -4 -11 -3 -28 2 -37 6 -9 6 -17 2 -17 -4 0 -9 -129 -10 -288 -1 -158
-2 -351 -2 -429 l-1 -142 -162 4 c-90 2 -172 6 -183 8 -17 4 -88 14 -150 23
-176 22 -467 108 -598 176 -167 87 -272 237 -303 433 -7 44 -11 67 -14 75 -1
3 -2 9 -1 13 1 4 -6 10 -14 13 -36 14 -186 -197 -257 -362 -28 -66 -64 -185
-74 -249 -14 -87 -7 -237 17 -343 12 -57 49 -164 62 -179 5 -7 7 -13 3 -13 -3
0 5 -18 19 -40 14 -22 25 -46 25 -55 0 -8 4 -15 10 -15 5 0 17 -14 25 -31 27
-51 85 -124 198 -249 77 -85 85 -101 80 -165 -16 -215 -4 -314 48 -379 49 -63
110 -126 120 -126 5 0 11 12 15 28 18 81 27 103 56 143 17 24 41 52 52 62 21
17 99 61 104 58 1 -1 18 5 37 13 20 9 36 15 38 15 2 -1 41 5 102 16 17 3 45 8
64 10 19 3 46 7 60 10 54 8 108 15 161 20 30 2 69 6 85 9 30 4 143 16 200 21
17 1 64 6 105 10 l75 7 2 -154 c0 -84 2 -182 2 -218 9 -433 -1 -2140 -12
-2158 -4 -5 -8 -25 -11 -44 -5 -45 -42 -134 -73 -175 -12 -17 -23 -34 -23 -37
0 -3 -8 -14 -17 -24 -85 -88 -147 -168 -136 -175 11 -6 170 -8 740 -10 266 -1
483 -5 483 -8 0 -4 15 -4 33 0 28 6 82 7 97 1 3 -1 10 -1 15 0 22 5 266 0 275
-5 6 -3 10 -2 10 4 0 6 8 7 21 3 11 -4 45 -5 75 -2 30 3 59 3 65 -1 6 -4 22
-4 35 0 13 3 107 4 210 1 102 -3 188 -2 191 3 2 4 9 5 14 1 6 -3 65 -5 132 -4
67 1 129 1 137 1 61 -3 142 -1 150 4 5 3 11 2 14 -3 2 -4 33 -5 68 -2 35 3 86
3 113 0 28 -3 66 -3 85 0 19 3 47 3 63 -1 15 -4 27 -5 27 -1 0 8 125 6 146 -2
7 -3 16 -1 19 4 3 6 15 6 29 0 13 -5 27 -6 30 -3 3 4 52 6 109 4 56 -1 107 -1
112 -2 102 -1 1355 12 1445 15 114 4 158 7 275 21 22 3 60 7 85 10 25 2 56 6
70 9 14 3 41 9 60 12 19 4 44 8 55 10 11 3 32 6 46 9 14 3 68 16 120 30 52 14
101 27 109 29 113 30 393 156 489 220 29 20 55 36 58 36 2 0 46 31 96 68 166
123 320 285 422 442 29 45 122 218 124 232 1 4 10 28 21 54 11 25 20 51 20 58
0 7 3 16 7 20 5 4 8 11 9 14 0 4 9 34 19 67 20 65 21 69 29 103 3 13 7 31 10
40 7 24 17 89 22 142 2 25 6 59 9 75 6 40 7 367 1 426 -15 138 -53 270 -122
414 -36 77 -91 175 -104 185 -4 3 -18 22 -31 42 -53 79 -156 189 -253 271 -27
23 -57 49 -66 57 -88 80 -336 229 -608 364 -62 31 -72 39 -62 51 7 8 19 15 26
15 8 0 14 5 14 10 0 6 4 10 9 10 9 0 109 58 121 70 3 3 43 31 90 62 47 31 94
65 105 75 11 10 36 30 56 45 83 62 263 245 349 355 39 50 145 247 152 283 2 8
6 17 9 20 6 5 55 175 64 225 40 209 38 473 -6 685 -5 25 -12 58 -15 74 -21
108 -127 356 -208 486 -139 225 -352 424 -588 548 -129 68 -341 147 -480 178
-21 5 -48 11 -80 20 -13 3 -30 7 -38 8 -8 1 -24 6 -35 9 -12 4 -45 9 -75 11
-30 3 -77 8 -105 11 -84 10 -223 14 -670 21 -429 6 -4137 11 -4397 6z m3487
-1126 c870 -10 1046 -15 1120 -33 11 -2 29 -6 40 -7 34 -5 169 -40 205 -53 8
-3 20 -7 26 -8 6 -2 36 -15 67 -31 71 -34 155 -109 197 -174 34 -53 76 -163
86 -226 3 -21 8 -42 11 -46 14 -24 21 -272 11 -363 -7 -57 -35 -155 -49 -169
-5 -6 -9 -16 -9 -24 0 -20 -56 -100 -109 -155 -85 -90 -204 -156 -384 -215
l-116 -37 -615 0 c-339 0 -616 -2 -616 -5 0 -3 -38 -3 -85 0 -47 3 -94 2 -103
-1 -9 -4 -26 -3 -37 1 -11 4 -32 4 -46 0 -15 -4 -32 -4 -40 0 -7 5 -22 4 -32
-2 -15 -8 -18 -7 -12 4 6 10 5 10 -5 1 -8 -7 -20 -9 -35 -3 -13 5 -26 6 -29 3
-5 -5 -460 -8 -481 -3 -5 1 -12 1 -15 0 -3 -1 -184 -3 -402 -4 l-398 -2 0 83
c0 46 0 355 0 688 0 333 0 645 0 693 l0 89 47 2 c26 1 48 2 49 4 4 4 1185 -1
1759 -7z m-545 -2686 c30 -1 60 -1 65 0 35 5 1304 -8 1390 -14 94 -8 194 -21
250 -33 17 -4 41 -7 55 -8 14 -2 25 -3 25 -5 0 -1 12 -4 28 -6 15 -3 64 -16
110 -30 45 -13 87 -26 92 -27 28 -7 135 -62 135 -69 0 -4 4 -7 8 -5 26 7 174
-134 220 -210 107 -177 141 -360 118 -633 -18 -228 -103 -398 -268 -536 -52
-44 -258 -145 -258 -127 0 3 -6 1 -12 -5 -15 -11 -221 -60 -288 -67 -82 -9
-174 -16 -290 -20 -63 -2 -115 -4 -115 -5 0 -12 -2065 -26 -2464 -17 l-104 2
-12 40 c-8 29 -12 283 -14 907 l-2 867 33 3 c32 3 1190 1 1298 -2z"/>
</g>
</svg>
